<mxfile host="app.diagrams.net" modified="2024-05-08T06:05:58.963Z" agent="Mozilla/5.0 (Macintosh; Intel Mac OS X 10_15_7) AppleWebKit/537.36 (KHTML, like Gecko) Chrome/124.0.0.0 Safari/537.36" etag="ejWoaRlBVtXQop1nAhs4" version="24.2.5" type="github">
  <diagram id="prtHgNgQTEPvFCAcTncT" name="Page-1">
    <mxGraphModel dx="794" dy="515" grid="1" gridSize="10" guides="1" tooltips="1" connect="1" arrows="1" fold="1" page="1" pageScale="1" pageWidth="827" pageHeight="1169" math="0" shadow="0">
      <root>
        <mxCell id="0" />
        <mxCell id="1" parent="0" />
        <mxCell id="shQovsB5RWf2lCHvclD5-11" value="灯火" style="swimlane;whiteSpace=wrap;html=1;" vertex="1" parent="1">
          <mxGeometry x="160" y="80" width="190" height="380" as="geometry" />
        </mxCell>
        <mxCell id="shQovsB5RWf2lCHvclD5-14" value="广告创意表&lt;br&gt;&lt;div class=&quot;lake-content&quot;&gt;&lt;p style=&quot;margin: 0; padding: 0; min-height: 24px&quot; class=&quot;ne-p&quot; id=&quot;uc3b015f8&quot;&gt;&lt;a class=&quot;ne-link&quot; target=&quot;_blank&quot; data-href=&quot;https://dataphin.alipay.com/assets/catalog/detail/table/odps.adcdm.dim_asr_ad_adv_creative/info&quot; href=&quot;https://dataphin.alipay.com/assets/catalog/detail/table/odps.adcdm.dim_asr_ad_adv_creative/info&quot;&gt;&lt;span class=&quot;ne-text&quot;&gt;adcdm.dim_asr_ad_adv_creative&lt;/span&gt;&lt;/a&gt;&lt;/p&gt;&lt;/div&gt;" style="rounded=0;whiteSpace=wrap;html=1;" vertex="1" parent="shQovsB5RWf2lCHvclD5-11">
          <mxGeometry x="35" y="60" width="120" height="60" as="geometry" />
        </mxCell>
        <mxCell id="shQovsB5RWf2lCHvclD5-22" value="创意素材表&lt;br&gt;&lt;div class=&quot;lake-content&quot;&gt;&lt;p style=&quot;margin: 0; padding: 0; min-height: 24px&quot; class=&quot;ne-p&quot; id=&quot;u9786c645&quot;&gt;&lt;a class=&quot;ne-link&quot; target=&quot;_blank&quot; data-href=&quot;https://dataphin.alipay.com/assets/catalog/detail/table/odps.adods.ods_adbase_ad_material/info&quot; href=&quot;https://dataphin.alipay.com/assets/catalog/detail/table/odps.adods.ods_adbase_ad_material/info&quot;&gt;&lt;span style=&quot;color: rgb(0, 0, 0)&quot; class=&quot;ne-text&quot;&gt;adods.ods_adbase_ad_material&lt;/span&gt;&lt;/a&gt;&lt;/p&gt;&lt;/div&gt;" style="rounded=0;whiteSpace=wrap;html=1;" vertex="1" parent="shQovsB5RWf2lCHvclD5-11">
          <mxGeometry x="35" y="150" width="120" height="60" as="geometry" />
        </mxCell>
        <mxCell id="shQovsB5RWf2lCHvclD5-23" value="送审流水表&lt;br&gt;&lt;div class=&quot;lake-content&quot;&gt;&lt;p style=&quot;margin: 0; padding: 0; min-height: 24px&quot; class=&quot;ne-p&quot; id=&quot;uefdb24e7&quot;&gt;&lt;a class=&quot;ne-link&quot; target=&quot;_blank&quot; data-href=&quot;https://dataphin.alipay.com/assets/catalog/detail/table/odps.adods.ods_adbase_ad_audit_flow/info&quot; href=&quot;https://dataphin.alipay.com/assets/catalog/detail/table/odps.adods.ods_adbase_ad_audit_flow/info&quot;&gt;&lt;span style=&quot;color: rgb(0, 0, 0)&quot; class=&quot;ne-text&quot;&gt;adods.ods_adbase_ad_audit_flow&lt;/span&gt;&lt;/a&gt;&lt;/p&gt;&lt;/div&gt;" style="rounded=0;whiteSpace=wrap;html=1;" vertex="1" parent="shQovsB5RWf2lCHvclD5-11">
          <mxGeometry x="35" y="240" width="120" height="60" as="geometry" />
        </mxCell>
        <mxCell id="shQovsB5RWf2lCHvclD5-12" value="广告专项" style="swimlane;whiteSpace=wrap;html=1;" vertex="1" parent="1">
          <mxGeometry x="350" y="80" width="190" height="380" as="geometry" />
        </mxCell>
        <mxCell id="shQovsB5RWf2lCHvclD5-28" style="edgeStyle=orthogonalEdgeStyle;rounded=0;orthogonalLoop=1;jettySize=auto;html=1;endArrow=none;endFill=0;" edge="1" parent="shQovsB5RWf2lCHvclD5-12" source="shQovsB5RWf2lCHvclD5-17" target="shQovsB5RWf2lCHvclD5-21">
          <mxGeometry relative="1" as="geometry" />
        </mxCell>
        <mxCell id="shQovsB5RWf2lCHvclD5-17" value="创意表" style="rounded=0;whiteSpace=wrap;html=1;" vertex="1" parent="shQovsB5RWf2lCHvclD5-12">
          <mxGeometry x="45" y="60" width="120" height="60" as="geometry" />
        </mxCell>
        <mxCell id="shQovsB5RWf2lCHvclD5-29" style="edgeStyle=orthogonalEdgeStyle;rounded=0;orthogonalLoop=1;jettySize=auto;html=1;endArrow=none;endFill=0;" edge="1" parent="shQovsB5RWf2lCHvclD5-12" source="shQovsB5RWf2lCHvclD5-21" target="shQovsB5RWf2lCHvclD5-20">
          <mxGeometry relative="1" as="geometry" />
        </mxCell>
        <mxCell id="shQovsB5RWf2lCHvclD5-21" value="素材表" style="rounded=0;whiteSpace=wrap;html=1;" vertex="1" parent="shQovsB5RWf2lCHvclD5-12">
          <mxGeometry x="45" y="150" width="120" height="60" as="geometry" />
        </mxCell>
        <mxCell id="shQovsB5RWf2lCHvclD5-20" value="审核表" style="rounded=0;whiteSpace=wrap;html=1;" vertex="1" parent="shQovsB5RWf2lCHvclD5-12">
          <mxGeometry x="45" y="240" width="120" height="60" as="geometry" />
        </mxCell>
        <mxCell id="shQovsB5RWf2lCHvclD5-13" value="GR" style="swimlane;whiteSpace=wrap;html=1;" vertex="1" parent="1">
          <mxGeometry x="540" y="80" width="190" height="380" as="geometry" />
        </mxCell>
        <mxCell id="shQovsB5RWf2lCHvclD5-30" value="审核xx表&lt;br&gt;&lt;div class=&quot;lake-content&quot;&gt;&lt;p id=&quot;u9786c645&quot; class=&quot;ne-p&quot; style=&quot;margin: 0; padding: 0; min-height: 24px&quot;&gt;&lt;/p&gt;&lt;/div&gt;" style="rounded=0;whiteSpace=wrap;html=1;" vertex="1" parent="shQovsB5RWf2lCHvclD5-13">
          <mxGeometry x="50" y="150" width="120" height="60" as="geometry" />
        </mxCell>
        <mxCell id="shQovsB5RWf2lCHvclD5-18" value="" style="edgeStyle=orthogonalEdgeStyle;rounded=0;orthogonalLoop=1;jettySize=auto;html=1;" edge="1" parent="1" source="shQovsB5RWf2lCHvclD5-14" target="shQovsB5RWf2lCHvclD5-17">
          <mxGeometry relative="1" as="geometry" />
        </mxCell>
        <mxCell id="shQovsB5RWf2lCHvclD5-19" value="回流" style="edgeLabel;html=1;align=center;verticalAlign=middle;resizable=0;points=[];" vertex="1" connectable="0" parent="shQovsB5RWf2lCHvclD5-18">
          <mxGeometry x="-0.35" relative="1" as="geometry">
            <mxPoint as="offset" />
          </mxGeometry>
        </mxCell>
        <mxCell id="shQovsB5RWf2lCHvclD5-24" style="edgeStyle=orthogonalEdgeStyle;rounded=0;orthogonalLoop=1;jettySize=auto;html=1;" edge="1" parent="1" source="shQovsB5RWf2lCHvclD5-23" target="shQovsB5RWf2lCHvclD5-20">
          <mxGeometry relative="1" as="geometry" />
        </mxCell>
        <mxCell id="shQovsB5RWf2lCHvclD5-27" value="回流" style="edgeLabel;html=1;align=center;verticalAlign=middle;resizable=0;points=[];" vertex="1" connectable="0" parent="shQovsB5RWf2lCHvclD5-24">
          <mxGeometry x="-0.0769" y="2" relative="1" as="geometry">
            <mxPoint as="offset" />
          </mxGeometry>
        </mxCell>
        <mxCell id="shQovsB5RWf2lCHvclD5-25" style="edgeStyle=orthogonalEdgeStyle;rounded=0;orthogonalLoop=1;jettySize=auto;html=1;" edge="1" parent="1" source="shQovsB5RWf2lCHvclD5-22" target="shQovsB5RWf2lCHvclD5-21">
          <mxGeometry relative="1" as="geometry" />
        </mxCell>
        <mxCell id="shQovsB5RWf2lCHvclD5-26" value="回流" style="edgeLabel;html=1;align=center;verticalAlign=middle;resizable=0;points=[];" vertex="1" connectable="0" parent="shQovsB5RWf2lCHvclD5-25">
          <mxGeometry x="0.175" y="-1" relative="1" as="geometry">
            <mxPoint as="offset" />
          </mxGeometry>
        </mxCell>
        <mxCell id="shQovsB5RWf2lCHvclD5-31" style="edgeStyle=orthogonalEdgeStyle;rounded=0;orthogonalLoop=1;jettySize=auto;html=1;" edge="1" parent="1" source="shQovsB5RWf2lCHvclD5-30" target="shQovsB5RWf2lCHvclD5-21">
          <mxGeometry relative="1" as="geometry" />
        </mxCell>
        <mxCell id="shQovsB5RWf2lCHvclD5-32" value="ocr等信息" style="edgeLabel;html=1;align=center;verticalAlign=middle;resizable=0;points=[];" vertex="1" connectable="0" parent="shQovsB5RWf2lCHvclD5-31">
          <mxGeometry x="-0.2667" y="-2" relative="1" as="geometry">
            <mxPoint x="-9" y="2" as="offset" />
          </mxGeometry>
        </mxCell>
      </root>
    </mxGraphModel>
  </diagram>
</mxfile>
